<svg width="25" height="24" viewBox="0 0 25 24" fill="none" xmlns="http://www.w3.org/2000/svg">
  <path d="M23.4602 21.1461L3.25238 0.938293C2.77947 0.46538 2.01277 0.46538 1.53986 0.938293C1.06694 1.41121 1.06694 2.1779 1.53986 2.65082L21.7476 22.8586C22.2206 23.3315 22.9873 23.3315 23.4602 22.8586C23.9331 22.3857 23.9331 21.619 23.4602 21.1461Z" fill="white"></path>
  <path d="M21.7476 0.938268L1.53986 21.1461C1.06694 21.619 1.06694 22.3857 1.53986 22.8586C2.01277 23.3315 2.77947 23.3315 3.25238 22.8586L23.4602 2.65079C23.9331 2.17788 23.9331 1.41118 23.4602 0.938268C22.9873 0.465354 22.2206 0.465355 21.7476 0.938268Z" fill="white"></path>
  </svg>
