<svg width="31" height="22" fill="none" xmlns="http://www.w3.org/2000/svg"><path d="M29.79 9.688H1.21a1.21 1.21 0 100 2.421h28.58a1.21 1.21 0 000-2.421zm0-9.688H1.21a1.21 1.21 0 100 2.422h28.58a1.21 1.21 0 100-2.422zm0 19.375H1.21a1.21 1.21 0 100 2.422h28.58a1.21 1.21 0 000-2.422z" fill="#fff"/></svg>l="#ffffff"></path>
  <path d="M29.7891 0H1.21094C0.542137 0 0 0.542137 0 1.21094C0 1.87974 0.542137 2.42188 1.21094 2.42188H29.7891C30.4579 2.42188 31 1.87974 31 1.21094C31 0.542137 30.4579 0 29.7891 0Z" fill="#ffffff"></path>
  <path d="M29.7891 19.375H1.21094C0.542137 19.375 0 19.9171 0 20.5859C0 21.2547 0.542137 21.7969 1.21094 21.7969H29.7891C30.4579 21.7969 31 21.2547 31 20.5859C31 19.9171 30.4579 19.375 29.7891 19.375Z" fill="#ffffff"></path>
  </svg>
