<svg width="25" height="24" fill="none" xmlns="http://www.w3.org/2000/svg"><path d="M23.46 21.146L3.252.938A1.21 1.21 0 101.54 2.651l20.208 20.208a1.211 1.211 0 001.712-1.713z" fill="#fff"/><path d="M21.748.938L1.54 21.146a1.21 1.21 0 101.712 1.713L23.46 2.65A1.21 1.21 0 1021.748.938z" fill="#fff"/></svg>31 22.3857 23.9331 21.619 23.4602 21.1461Z" fill="white"></path>
  <path d="M21.7476 0.938268L1.53986 21.1461C1.06694 21.619 1.06694 22.3857 1.53986 22.8586C2.01277 23.3315 2.77947 23.3315 3.25238 22.8586L23.4602 2.65079C23.9331 2.17788 23.9331 1.41118 23.4602 0.938268C22.9873 0.465354 22.2206 0.465355 21.7476 0.938268Z" fill="white"></path>
  </svg>
