<svg width="346" height="232" viewBox="0 0 346 232" fill="none" xmlns="http://www.w3.org/2000/svg">
<path d="M93.2854 56.8862C93.2854 53.6222 92.8374 51.2222 91.9414 49.6862C91.0454 48.0862 89.2534 47.2862 86.5654 47.2862H84.6454V45.3662H125.541C130.981 45.3662 133.701 47.9262 133.701 53.0462V60.2462H131.781C131.781 52.8862 127.781 49.2062 119.781 49.2062H101.925V74.1662H127.845V78.0062H101.925V104.886H118.725C123.141 104.886 126.597 104.086 129.093 102.486C131.589 100.886 133.573 98.1662 135.045 94.3262L136.965 94.8062L133.605 103.926C132.453 107.126 130.053 108.726 126.405 108.726H93.2854V56.8862ZM199.35 109.686C196.342 109.686 193.206 108.886 189.942 107.286C186.678 105.622 182.934 102.582 178.71 98.1662L158.55 77.0462V108.726H149.91V56.8862C149.91 53.6222 149.462 51.2222 148.566 49.6862C147.67 48.0862 145.878 47.2862 143.19 47.2862H141.27V45.3662H149.91C152.278 45.3662 154.038 45.6862 155.19 46.3262C156.406 46.9022 157.27 47.9902 157.782 49.5901C158.294 51.1902 158.55 53.6222 158.55 56.8862V75.6062L178.71 55.4462L180.63 53.4302C182.422 51.5742 183.926 50.1342 185.142 49.1102C186.358 48.0222 187.798 47.1262 189.462 46.4222C191.126 45.7182 192.982 45.3662 195.03 45.3662H199.83V47.7662C197.142 47.7662 194.806 48.2462 192.822 49.2062C190.838 50.1022 188.534 51.8622 185.91 54.4862L167.19 73.2062L189.27 96.2462C192.086 99.1262 194.934 101.558 197.814 103.542C200.694 105.462 203.286 106.582 205.59 106.902V108.726C203.67 109.366 201.59 109.686 199.35 109.686ZM231.775 110.358C228.255 110.358 224.799 109.878 221.407 108.918C218.015 107.958 215.231 106.582 213.055 104.79C210.943 102.998 209.887 100.95 209.887 98.6462V88.3742H211.615C212.703 94.7742 214.815 99.4142 217.951 102.294C221.087 105.11 225.407 106.518 230.911 106.518C234.367 106.518 237.311 105.654 239.743 103.926C242.239 102.198 243.487 99.7982 243.487 96.7262C243.487 94.0382 242.655 91.7022 240.991 89.7182C239.327 87.7342 236.639 85.6542 232.927 83.4782L221.119 76.4702C217.023 74.0382 214.111 71.5742 212.383 69.0782C210.719 66.5822 209.887 63.5422 209.887 59.9582C209.887 55.0302 211.583 51.0942 214.975 48.1502C218.431 45.1422 222.943 43.6382 228.511 43.6382C231.775 43.6382 235.007 44.1182 238.207 45.0782C241.407 45.9742 244.031 47.3182 246.079 49.1102C248.191 50.8382 249.247 52.8542 249.247 55.1582V65.4302H247.519C246.431 59.0302 244.351 54.4542 241.279 51.7022C238.271 48.8862 234.015 47.4782 228.511 47.4782C225.567 47.4782 222.975 48.3742 220.735 50.1662C218.495 51.9582 217.375 54.2942 217.375 57.1742C217.375 59.7982 218.175 61.9742 219.775 63.7022C221.439 65.4302 224.191 67.4462 228.031 69.7502L239.839 76.7582C244.191 79.3822 247.263 81.8142 249.055 84.0542C250.847 86.2942 251.743 89.1422 251.743 92.5982C251.743 97.9742 249.951 102.294 246.367 105.558C242.783 108.758 237.919 110.358 231.775 110.358Z" fill="white"/>
<path d="M91.9414 49.6862L91.0689 50.1748L91.0732 50.1824L91.0776 50.19L91.9414 49.6862ZM84.6454 47.2862H83.6454V48.2862H84.6454V47.2862ZM84.6454 45.3662V44.3662H83.6454V45.3662H84.6454ZM133.701 60.2462V61.2462H134.701V60.2462H133.701ZM131.781 60.2462H130.781V61.2462H131.781V60.2462ZM101.925 49.2062V48.2062H100.925V49.2062H101.925ZM101.925 74.1662H100.925V75.1662H101.925V74.1662ZM127.845 74.1662H128.845V73.1662H127.845V74.1662ZM127.845 78.0062V79.0062H128.845V78.0062H127.845ZM101.925 78.0062V77.0062H100.925V78.0062H101.925ZM101.925 104.886H100.925V105.886H101.925V104.886ZM129.093 102.486L129.633 103.328L129.093 102.486ZM135.045 94.3262L135.288 93.3561L134.429 93.1412L134.112 93.9683L135.045 94.3262ZM136.965 94.8062L137.904 95.1519L138.289 94.1063L137.208 93.8361L136.965 94.8062ZM133.605 103.926L132.667 103.58L132.665 103.587L133.605 103.926ZM93.2854 108.726H92.2854V109.726H93.2854V108.726ZM94.2854 56.8862C94.2854 53.571 93.8375 50.952 92.8052 49.1823L91.0776 50.19C91.8373 51.4923 92.2854 53.6734 92.2854 56.8862H94.2854ZM92.8139 49.1976C91.6658 47.1473 89.4292 46.2862 86.5654 46.2862V48.2862C89.0775 48.2862 90.425 49.025 91.0689 50.1748L92.8139 49.1976ZM86.5654 46.2862H84.6454V48.2862H86.5654V46.2862ZM85.6454 47.2862V45.3662H83.6454V47.2862H85.6454ZM84.6454 46.3662H125.541V44.3662H84.6454V46.3662ZM125.541 46.3662C128.122 46.3662 129.871 46.9745 130.976 48.0144C132.07 49.0435 132.701 50.6563 132.701 53.0462H134.701C134.701 50.316 133.973 48.0888 132.347 46.558C130.732 45.0378 128.401 44.3662 125.541 44.3662V46.3662ZM132.701 53.0462V60.2462H134.701V53.0462H132.701ZM133.701 59.2462H131.781V61.2462H133.701V59.2462ZM132.781 60.2462C132.781 56.3896 131.73 53.3197 129.458 51.2302C127.203 49.1553 123.916 48.2062 119.781 48.2062V50.2062C123.647 50.2062 126.36 51.097 128.104 52.7021C129.833 54.2927 130.781 56.7428 130.781 60.2462H132.781ZM119.781 48.2062H101.925V50.2062H119.781V48.2062ZM100.925 49.2062V74.1662H102.925V49.2062H100.925ZM101.925 75.1662H127.845V73.1662H101.925V75.1662ZM126.845 74.1662V78.0062H128.845V74.1662H126.845ZM127.845 77.0062H101.925V79.0062H127.845V77.0062ZM100.925 78.0062V104.886H102.925V78.0062H100.925ZM101.925 105.886H118.725V103.886H101.925V105.886ZM118.725 105.886C123.245 105.886 126.915 105.07 129.633 103.328L128.554 101.644C126.279 103.102 123.038 103.886 118.725 103.886V105.886ZM129.633 103.328C132.366 101.576 134.46 98.648 135.979 94.6841L134.112 93.9683C132.687 97.6844 130.812 100.196 128.554 101.644L129.633 103.328ZM134.803 95.2963L136.723 95.7763L137.208 93.8361L135.288 93.3561L134.803 95.2963ZM136.027 94.4605L132.667 103.58L134.544 104.272L137.904 95.1519L136.027 94.4605ZM132.665 103.587C132.148 105.023 131.378 106.033 130.387 106.694C129.39 107.359 128.084 107.726 126.405 107.726V109.726C128.375 109.726 130.093 109.293 131.496 108.358C132.905 107.419 133.911 106.029 134.546 104.265L132.665 103.587ZM126.405 107.726H93.2854V109.726H126.405V107.726ZM94.2854 108.726V56.8862H92.2854V108.726H94.2854ZM189.942 107.286L189.488 108.177L189.495 108.181L189.502 108.184L189.942 107.286ZM178.71 98.1662L177.987 98.8567L177.988 98.8574L178.71 98.1662ZM158.55 77.0462L159.274 76.3557L157.55 74.5503V77.0462H158.55ZM158.55 108.726V109.726H159.55V108.726H158.55ZM149.91 108.726H148.91V109.726H149.91V108.726ZM148.566 49.6862L147.694 50.1748L147.698 50.1824L147.703 50.19L148.566 49.6862ZM141.27 47.2862H140.27V48.2862H141.27V47.2862ZM141.27 45.3662V44.3662H140.27V45.3662H141.27ZM155.19 46.3262L154.705 47.2003L154.733 47.216L154.762 47.2299L155.19 46.3262ZM157.782 49.5901L158.735 49.2854L157.782 49.5901ZM158.55 75.6062H157.55V78.0204L159.258 76.3133L158.55 75.6062ZM178.71 55.4462L179.418 56.1533L179.426 56.1447L179.435 56.1359L178.71 55.4462ZM180.63 53.4302L179.911 52.7356L179.906 52.7405L180.63 53.4302ZM185.142 49.1102L185.787 49.8751L185.798 49.8654L185.809 49.8554L185.142 49.1102ZM189.462 46.4222L189.073 45.5012L189.462 46.4222ZM199.83 45.3662H200.83V44.3662H199.83V45.3662ZM199.83 47.7662V48.7662H200.83V47.7662H199.83ZM192.822 49.2062L193.234 50.1175L193.246 50.1121L193.258 50.1063L192.822 49.2062ZM185.91 54.4862L186.617 55.1933L185.91 54.4862ZM167.19 73.2062L166.483 72.4991L165.791 73.1913L166.468 73.8981L167.19 73.2062ZM189.27 96.2462L188.548 96.9381L188.555 96.9453L189.27 96.2462ZM197.814 103.542L197.247 104.366L197.253 104.37L197.26 104.374L197.814 103.542ZM205.59 106.902H206.59V106.031L205.728 105.912L205.59 106.902ZM205.59 108.726L205.907 109.675L206.59 109.447V108.726H205.59ZM199.35 108.686C196.524 108.686 193.538 107.935 190.383 106.388L189.502 108.184C192.875 109.837 196.161 110.686 199.35 110.686V108.686ZM190.397 106.395C187.277 104.805 183.624 101.856 179.433 97.475L177.988 98.8574C182.245 103.308 186.079 106.439 189.488 108.177L190.397 106.395ZM179.434 97.4757L159.274 76.3557L157.827 77.7367L177.987 98.8567L179.434 97.4757ZM157.55 77.0462V108.726H159.55V77.0462H157.55ZM158.55 107.726H149.91V109.726H158.55V107.726ZM150.91 108.726V56.8862H148.91V108.726H150.91ZM150.91 56.8862C150.91 53.571 150.463 50.952 149.43 49.1823L147.703 50.19C148.462 51.4923 148.91 53.6734 148.91 56.8862H150.91ZM149.439 49.1976C148.291 47.1473 146.054 46.2862 143.19 46.2862V48.2862C145.703 48.2862 147.05 49.025 147.694 50.1748L149.439 49.1976ZM143.19 46.2862H141.27V48.2862H143.19V46.2862ZM142.27 47.2862V45.3662H140.27V47.2862H142.27ZM141.27 46.3662H149.91V44.3662H141.27V46.3662ZM149.91 46.3662C152.224 46.3662 153.777 46.6851 154.705 47.2003L155.676 45.452C154.299 44.6872 152.333 44.3662 149.91 44.3662V46.3662ZM154.762 47.2299C155.669 47.6592 156.38 48.4886 156.83 49.8949L158.735 49.2854C158.161 47.4917 157.144 46.1451 155.619 45.4224L154.762 47.2299ZM156.83 49.8949C157.293 51.3425 157.55 53.6474 157.55 56.8862H159.55C159.55 53.597 159.296 51.0378 158.735 49.2854L156.83 49.8949ZM157.55 56.8862V75.6062H159.55V56.8862H157.55ZM159.258 76.3133L179.418 56.1533L178.003 54.7391L157.843 74.8991L159.258 76.3133ZM179.435 56.1359L181.355 54.1199L179.906 52.7405L177.986 54.7565L179.435 56.1359ZM181.35 54.1248C183.131 52.2803 184.608 50.8677 185.787 49.8751L184.498 48.3452C183.245 49.4007 181.714 50.868 179.911 52.7356L181.35 54.1248ZM185.809 49.8554C186.935 48.8483 188.279 48.0088 189.852 47.3431L189.073 45.5012C187.318 46.2435 185.782 47.196 184.476 48.3649L185.809 49.8554ZM189.852 47.3431C191.377 46.6978 193.098 46.3662 195.03 46.3662V44.3662C192.866 44.3662 190.875 44.7385 189.073 45.5012L189.852 47.3431ZM195.03 46.3662H199.83V44.3662H195.03V46.3662ZM198.83 45.3662V47.7662H200.83V45.3662H198.83ZM199.83 46.7662C197.024 46.7662 194.533 47.2674 192.387 48.306L193.258 50.1063C195.08 49.2249 197.261 48.7662 199.83 48.7662V46.7662ZM192.411 48.2948C190.266 49.2635 187.861 51.1211 185.203 53.7791L186.617 55.1933C189.208 52.6032 191.411 50.9408 193.234 50.1175L192.411 48.2948ZM185.203 53.7791L166.483 72.4991L167.898 73.9133L186.617 55.1933L185.203 53.7791ZM166.468 73.8981L188.548 96.9381L189.992 95.5543L167.912 72.5143L166.468 73.8981ZM188.555 96.9453C191.41 99.8647 194.307 102.34 197.247 104.366L198.382 102.719C195.562 100.776 192.763 98.3877 189.985 95.5471L188.555 96.9453ZM197.26 104.374C200.209 106.34 202.945 107.544 205.453 107.893L205.728 105.912C203.628 105.62 201.18 104.584 198.369 102.71L197.26 104.374ZM204.59 106.902V108.726H206.59V106.902H204.59ZM205.274 107.777C203.466 108.38 201.494 108.686 199.35 108.686V110.686C201.686 110.686 203.874 110.352 205.907 109.675L205.274 107.777ZM221.407 108.918L221.679 107.956L221.407 108.918ZM213.055 104.79L212.408 105.553L212.414 105.557L212.419 105.562L213.055 104.79ZM209.887 88.3742V87.3742H208.887V88.3742H209.887ZM211.615 88.3742L212.601 88.2066L212.459 87.3742H211.615V88.3742ZM217.951 102.294L217.275 103.031L217.283 103.038L217.951 102.294ZM239.743 103.926L239.174 103.104L239.164 103.111L239.743 103.926ZM232.927 83.4782L232.417 84.3382L232.421 84.3409L232.927 83.4782ZM221.119 76.4702L220.609 77.3301L221.119 76.4702ZM212.383 69.0782L211.551 69.6329L211.556 69.6402L211.561 69.6474L212.383 69.0782ZM214.975 48.1502L215.631 48.9054L215.632 48.9045L214.975 48.1502ZM238.207 45.0782L237.92 46.036L237.929 46.0386L237.937 46.0411L238.207 45.0782ZM246.079 49.1102L245.421 49.8627L245.433 49.8736L245.446 49.8841L246.079 49.1102ZM249.247 65.4302V66.4302H250.247V65.4302H249.247ZM247.519 65.4302L246.533 65.5978L246.675 66.4302H247.519V65.4302ZM241.279 51.7022L240.596 52.4322L240.604 52.4397L240.612 52.447L241.279 51.7022ZM220.735 50.1662L221.36 50.947L220.735 50.1662ZM219.775 63.7022L219.041 64.3816L219.048 64.3888L219.055 64.3958L219.775 63.7022ZM228.031 69.7502L227.517 70.6077L227.521 70.6101L228.031 69.7502ZM239.839 76.7582L240.355 75.9018L240.35 75.8982L239.839 76.7582ZM249.055 84.0542L248.274 84.6789L249.055 84.0542ZM246.367 105.558L247.033 106.304L247.04 106.297L246.367 105.558ZM231.775 109.358C228.347 109.358 224.983 108.891 221.679 107.956L221.135 109.88C224.615 110.865 228.163 111.358 231.775 111.358V109.358ZM221.679 107.956C218.388 107.024 215.737 105.703 213.691 104.018L212.419 105.562C214.725 107.461 217.642 108.892 221.135 109.88L221.679 107.956ZM213.702 104.028C211.764 102.383 210.887 100.597 210.887 98.6462H208.887C208.887 101.303 210.122 103.613 212.408 105.553L213.702 104.028ZM210.887 98.6462V88.3742H208.887V98.6462H210.887ZM209.887 89.3742H211.615V87.3742H209.887V89.3742ZM210.629 88.5418C211.736 95.0517 213.909 99.94 217.275 103.031L218.628 101.558C215.721 98.8884 213.67 94.4967 212.601 88.2066L210.629 88.5418ZM217.283 103.038C220.653 106.064 225.238 107.518 230.911 107.518V105.518C225.577 105.518 221.521 104.156 218.619 101.55L217.283 103.038ZM230.911 107.518C234.541 107.518 237.695 106.608 240.322 104.741L239.164 103.111C236.927 104.7 234.194 105.518 230.911 105.518V107.518ZM240.312 104.748C243.082 102.831 244.487 100.122 244.487 96.7262H242.487C242.487 99.4747 241.396 101.565 239.174 103.104L240.312 104.748ZM244.487 96.7262C244.487 93.8129 243.578 91.247 241.757 89.0756L240.225 90.3608C241.732 92.1574 242.487 94.2635 242.487 96.7262H244.487ZM241.757 89.0756C239.987 86.9648 237.187 84.8163 233.433 82.6155L232.421 84.3409C236.091 86.4921 238.667 88.5036 240.225 90.3608L241.757 89.0756ZM233.438 82.6182L221.63 75.6102L220.609 77.3301L232.417 84.3381L233.438 82.6182ZM221.63 75.6103C217.594 73.2144 214.818 70.8387 213.205 68.509L211.561 69.6474C213.404 72.3097 216.452 74.862 220.609 77.3301L221.63 75.6103ZM213.215 68.5235C211.681 66.2215 210.887 63.3838 210.887 59.9582H208.887C208.887 63.7006 209.758 66.9429 211.551 69.6329L213.215 68.5235ZM210.887 59.9582C210.887 55.2883 212.48 51.6396 215.631 48.9054L214.32 47.3949C210.686 50.5487 208.887 54.7721 208.887 59.9582H210.887ZM215.632 48.9045C218.868 46.0872 223.13 44.6382 228.511 44.6382V42.6382C222.756 42.6382 217.994 44.1971 214.319 47.3958L215.632 48.9045ZM228.511 44.6382C231.676 44.6382 234.811 45.1033 237.92 46.036L238.494 44.1203C235.203 43.133 231.875 42.6382 228.511 42.6382V44.6382ZM237.937 46.0411C241.025 46.9056 243.507 48.1883 245.421 49.8627L246.738 48.3576C244.555 46.448 241.789 45.0427 238.477 44.1152L237.937 46.0411ZM245.446 49.8841C247.373 51.4611 248.247 53.2106 248.247 55.1582H250.247C250.247 52.4977 249.009 50.2152 246.712 48.3362L245.446 49.8841ZM248.247 55.1582V65.4302H250.247V55.1582H248.247ZM249.247 64.4302H247.519V66.4302H249.247V64.4302ZM248.505 65.2626C247.4 58.7598 245.259 53.9252 241.946 50.9573L240.612 52.447C243.443 54.9832 245.463 59.3006 246.533 65.5978L248.505 65.2626ZM241.963 50.9721C238.714 47.9311 234.182 46.4782 228.511 46.4782V48.4782C233.848 48.4782 237.828 49.8412 240.596 52.4322L241.963 50.9721ZM228.511 46.4782C225.347 46.4782 222.533 47.4474 220.11 49.3853L221.36 50.947C223.418 49.3009 225.788 48.4782 228.511 48.4782V46.4782ZM220.11 49.3853C217.632 51.3679 216.375 53.9918 216.375 57.1742H218.375C218.375 54.5966 219.358 52.5484 221.36 50.947L220.11 49.3853ZM216.375 57.1742C216.375 60.019 217.25 62.4471 219.041 64.3816L220.509 63.0228C219.1 61.5013 218.375 59.5774 218.375 57.1742H216.375ZM219.055 64.3958C220.812 66.2203 223.654 68.2903 227.517 70.6077L228.546 68.8927C224.728 66.6021 222.067 64.6401 220.495 63.0086L219.055 64.3958ZM227.521 70.6101L239.329 77.6182L240.35 75.8982L228.542 68.8902L227.521 70.6101ZM239.323 77.6146C243.639 80.2171 246.592 82.5764 248.274 84.6789L249.836 83.4295C247.934 81.052 244.743 78.5473 240.355 75.9018L239.323 77.6146ZM248.274 84.6789C249.897 86.7073 250.743 89.3211 250.743 92.5982H252.743C252.743 88.9633 251.797 85.8811 249.836 83.4295L248.274 84.6789ZM250.743 92.5982C250.743 97.7269 249.046 101.766 245.694 104.819L247.04 106.297C250.857 102.822 252.743 98.2215 252.743 92.5982H250.743ZM245.701 104.812C242.347 107.807 237.744 109.358 231.775 109.358V111.358C238.094 111.358 243.219 109.709 247.033 106.304L245.701 104.812Z" fill="white"/>
<path d="M115.05 175.014C115.746 175.23 116.274 175.518 116.634 175.878C116.178 177.294 115.806 179.082 115.518 181.242C113.646 181.194 111.078 181.17 107.814 181.17C103.398 181.17 100.29 181.206 98.4898 181.278C98.4898 180.582 98.5498 180.066 98.6698 179.73C99.3418 179.682 99.8458 179.562 100.182 179.37C100.542 179.178 100.794 178.842 100.938 178.362C101.082 177.882 101.154 177.162 101.154 176.202V161.406C101.154 160.206 100.974 159.402 100.614 158.994C100.278 158.562 99.6298 158.322 98.6698 158.274C98.5498 157.938 98.4898 157.422 98.4898 156.726C99.9058 156.798 101.922 156.834 104.538 156.834C108.906 156.834 112.278 156.798 114.654 156.726C114.894 159.366 115.146 161.262 115.41 162.414C115.05 162.702 114.51 162.846 113.79 162.846C113.67 161.502 113.178 160.41 112.314 159.57C111.474 158.706 109.998 158.274 107.886 158.274H104.538V168.138H106.806C108.318 168.138 109.35 167.946 109.902 167.562C110.478 167.154 110.778 166.374 110.802 165.222C111.378 165.054 111.954 164.97 112.53 164.97C112.482 165.786 112.458 167.094 112.458 168.894C112.458 170.862 112.482 172.254 112.53 173.07C111.882 173.07 111.33 173.01 110.874 172.89C110.778 171.642 110.442 170.802 109.866 170.37C109.314 169.914 108.294 169.686 106.806 169.686H104.538V176.202C104.538 177.114 104.622 177.81 104.79 178.29C104.958 178.746 105.27 179.07 105.726 179.262C106.206 179.454 106.902 179.55 107.814 179.55H108.03C109.686 179.55 110.958 179.382 111.846 179.046C112.734 178.71 113.382 178.242 113.79 177.642C114.222 177.042 114.642 176.166 115.05 175.014ZM136.815 163.17C137.751 163.17 138.819 163.146 140.019 163.098C140.019 163.746 139.959 164.262 139.839 164.646C138.879 164.814 138.003 165.81 137.211 167.634C135.315 171.81 133.107 176.334 130.587 181.206C130.227 181.326 129.759 181.386 129.183 181.386C126.951 176.538 124.767 172.05 122.631 167.922C122.103 166.866 121.719 166.158 121.479 165.798C121.263 165.414 121.035 165.138 120.795 164.97C120.579 164.802 120.279 164.694 119.895 164.646C119.775 164.31 119.715 163.794 119.715 163.098C120.867 163.146 122.187 163.17 123.675 163.17C124.611 163.17 125.943 163.146 127.671 163.098C127.671 163.698 127.611 164.214 127.491 164.646C126.867 164.694 126.399 164.79 126.087 164.934C125.799 165.078 125.655 165.318 125.655 165.654C125.655 166.086 125.883 166.71 126.339 167.526C128.019 170.646 129.519 173.718 130.839 176.742C132.807 172.902 134.283 169.878 135.267 167.67C135.555 167.022 135.699 166.47 135.699 166.014C135.699 165.198 135.195 164.742 134.187 164.646C134.067 164.31 134.007 163.794 134.007 163.098C135.207 163.146 136.143 163.17 136.815 163.17ZM153.578 181.422C151.514 181.422 149.69 181.026 148.106 180.234C146.522 179.442 145.286 178.338 144.398 176.922C143.534 175.482 143.102 173.838 143.102 171.99C143.102 170.07 143.618 168.438 144.65 167.094C145.682 165.726 147.038 164.694 148.718 163.998C150.398 163.302 152.198 162.954 154.118 162.954C155.582 162.954 156.974 163.074 158.294 163.314C159.638 163.53 160.766 163.842 161.678 164.25C161.462 165.162 161.354 166.542 161.354 168.39C160.922 168.582 160.31 168.678 159.518 168.678C159.446 167.166 158.954 166.098 158.042 165.474C157.13 164.85 155.894 164.538 154.334 164.538C152.678 164.538 151.274 164.85 150.122 165.474C148.994 166.098 148.154 166.938 147.602 167.994C147.05 169.026 146.774 170.154 146.774 171.378C146.774 173.826 147.41 175.818 148.682 177.354C149.978 178.89 151.814 179.658 154.19 179.658C154.934 179.658 155.51 179.646 155.918 179.622C156.326 179.598 156.746 179.526 157.178 179.406C157.562 179.31 157.838 179.13 158.006 178.866C158.174 178.578 158.258 178.11 158.258 177.462V176.346C158.258 175.65 158.198 175.158 158.078 174.87C157.958 174.558 157.718 174.354 157.358 174.258C156.998 174.138 156.41 174.066 155.594 174.042C155.45 173.61 155.378 173.058 155.378 172.386C155.93 172.434 157.238 172.458 159.302 172.458C161.342 172.458 162.602 172.434 163.082 172.386C163.082 173.058 163.022 173.61 162.902 174.042C162.446 174.066 162.122 174.138 161.93 174.258C161.738 174.354 161.606 174.546 161.534 174.834C161.462 175.098 161.426 175.53 161.426 176.13V177.03C161.426 177.582 161.45 178.026 161.498 178.362C161.57 178.674 161.69 179.01 161.858 179.37C160.898 179.994 159.698 180.498 158.258 180.882C156.842 181.242 155.282 181.422 153.578 181.422ZM183.578 176.058C184.226 176.178 184.754 176.442 185.162 176.85C184.73 177.978 184.406 179.43 184.19 181.206L177.242 181.17C173.786 181.17 171.002 181.194 168.89 181.242C168.89 180.498 168.95 179.958 169.07 179.622C169.67 179.574 170.114 179.478 170.402 179.334C170.714 179.19 170.93 178.926 171.05 178.542C171.17 178.158 171.23 177.582 171.23 176.814V167.346C171.23 166.65 171.158 166.122 171.014 165.762C170.894 165.402 170.678 165.15 170.366 165.006C170.078 164.862 169.646 164.766 169.07 164.718C168.95 164.358 168.89 163.818 168.89 163.098C170.618 163.146 172.502 163.17 174.542 163.17C178.958 163.17 181.91 163.146 183.398 163.098C183.662 165.354 183.89 166.842 184.082 167.562C183.674 167.826 183.134 167.958 182.462 167.958C182.366 166.95 181.946 166.158 181.202 165.582C180.482 165.006 179.198 164.718 177.35 164.718H174.542V171.342H176.342C177.614 171.342 178.49 171.198 178.97 170.91C179.474 170.622 179.738 170.094 179.762 169.326C180.29 169.158 180.842 169.074 181.418 169.074C181.37 169.674 181.346 170.682 181.346 172.098C181.346 173.634 181.37 174.678 181.418 175.23C180.77 175.23 180.242 175.158 179.834 175.014C179.762 174.222 179.474 173.682 178.97 173.394C178.49 173.106 177.614 172.962 176.342 172.962H174.542V176.742C174.542 177.51 174.614 178.098 174.758 178.506C174.926 178.89 175.202 179.166 175.586 179.334C175.994 179.478 176.594 179.55 177.386 179.55H177.602C178.994 179.55 180.062 179.43 180.806 179.19C181.574 178.95 182.138 178.602 182.498 178.146C182.882 177.666 183.242 176.97 183.578 176.058ZM207.549 163.17C208.461 163.17 209.469 163.146 210.573 163.098C210.573 163.818 210.525 164.358 210.429 164.718C209.925 164.766 209.541 164.898 209.277 165.114C209.013 165.33 208.821 165.702 208.701 166.23C208.605 166.734 208.557 167.49 208.557 168.498V181.206C208.245 181.35 207.753 181.422 207.081 181.422L194.157 167.13V175.77C194.157 176.802 194.217 177.582 194.337 178.11C194.481 178.638 194.709 179.01 195.021 179.226C195.333 179.442 195.789 179.574 196.389 179.622C196.509 180.006 196.569 180.546 196.569 181.242C195.273 181.194 194.205 181.17 193.365 181.17C192.237 181.17 191.145 181.194 190.089 181.242C190.089 180.546 190.149 180.006 190.269 179.622C190.869 179.574 191.313 179.442 191.601 179.226C191.913 179.01 192.129 178.638 192.249 178.11C192.393 177.582 192.465 176.802 192.465 175.77V165.258L192.429 165.222C192.261 165.054 192.045 164.946 191.781 164.898C191.517 164.826 191.013 164.766 190.269 164.718C190.149 164.286 190.089 163.746 190.089 163.098C190.953 163.146 191.793 163.17 192.609 163.17C193.353 163.17 194.109 163.146 194.877 163.098L206.865 176.526V168.498C206.865 167.49 206.793 166.734 206.649 166.23C206.529 165.702 206.313 165.33 206.001 165.114C205.689 164.898 205.221 164.766 204.597 164.718C204.501 164.166 204.453 163.626 204.453 163.098C205.653 163.146 206.685 163.17 207.549 163.17ZM216.034 181.242C216.034 180.498 216.094 179.958 216.214 179.622C216.814 179.574 217.258 179.478 217.546 179.334C217.858 179.19 218.074 178.938 218.194 178.578C218.314 178.218 218.374 177.678 218.374 176.958V167.346C218.374 166.65 218.314 166.122 218.194 165.762C218.074 165.402 217.858 165.15 217.546 165.006C217.258 164.862 216.814 164.766 216.214 164.718C216.094 164.358 216.034 163.818 216.034 163.098C217.57 163.146 218.914 163.17 220.066 163.17C221.026 163.17 222.346 163.146 224.026 163.098C224.026 163.842 223.978 164.382 223.882 164.718C223.018 164.766 222.43 164.958 222.118 165.294C221.83 165.63 221.686 166.314 221.686 167.346V176.958C221.686 177.99 221.83 178.686 222.118 179.046C222.43 179.382 223.018 179.574 223.882 179.622C223.978 179.982 224.026 180.522 224.026 181.242C222.394 181.194 221.074 181.17 220.066 181.17C218.866 181.17 217.522 181.194 216.034 181.242ZM229.499 181.242C229.499 180.498 229.559 179.958 229.679 179.622C230.279 179.574 230.723 179.478 231.011 179.334C231.323 179.19 231.539 178.938 231.659 178.578C231.779 178.218 231.839 177.678 231.839 176.958V167.346C231.839 166.65 231.779 166.122 231.659 165.762C231.539 165.402 231.323 165.15 231.011 165.006C230.723 164.862 230.279 164.766 229.679 164.718C229.559 164.358 229.499 163.818 229.499 163.098C231.035 163.146 232.379 163.17 233.531 163.17C234.491 163.17 235.811 163.146 237.491 163.098C237.491 163.842 237.443 164.382 237.347 164.718C236.483 164.766 235.895 164.958 235.583 165.294C235.295 165.63 235.151 166.314 235.151 167.346V176.958C235.151 177.99 235.295 178.686 235.583 179.046C235.895 179.382 236.483 179.574 237.347 179.622C237.443 179.982 237.491 180.522 237.491 181.242C235.859 181.194 234.539 181.17 233.531 181.17C232.331 181.17 230.987 181.194 229.499 181.242ZM42.808 231.494C41.416 231.494 40.168 231.314 39.064 230.954C37.96 230.57 36.772 229.982 35.5 229.19C35.716 227.846 35.824 226.142 35.824 224.078C36.376 223.934 37.024 223.862 37.768 223.862C37.864 225.782 38.344 227.246 39.208 228.254C40.096 229.262 41.464 229.766 43.312 229.766C44.872 229.766 46.024 229.43 46.768 228.758C47.536 228.062 47.92 227.15 47.92 226.022C47.92 225.086 47.68 224.294 47.2 223.646C46.72 222.998 46.132 222.47 45.436 222.062C44.74 221.63 43.768 221.126 42.52 220.55C41.08 219.854 39.928 219.23 39.064 218.678C38.2 218.126 37.456 217.394 36.832 216.482C36.232 215.546 35.932 214.382 35.932 212.99C35.932 210.974 36.58 209.39 37.876 208.238C39.172 207.086 40.936 206.51 43.168 206.51C44.344 206.51 45.472 206.666 46.552 206.978C47.632 207.266 48.508 207.638 49.18 208.094C49.18 210.23 49.252 211.814 49.396 212.846C48.868 213.062 48.196 213.17 47.38 213.17C47.044 211.202 46.54 209.87 45.868 209.174C45.196 208.454 44.284 208.094 43.132 208.094C41.86 208.094 40.864 208.406 40.144 209.03C39.424 209.654 39.064 210.53 39.064 211.658C39.064 212.594 39.304 213.398 39.784 214.07C40.288 214.742 40.888 215.294 41.584 215.726C42.304 216.158 43.288 216.686 44.536 217.31C45.952 217.982 47.08 218.594 47.92 219.146C48.784 219.698 49.516 220.418 50.116 221.306C50.716 222.194 51.016 223.286 51.016 224.582C51.016 225.83 50.716 226.982 50.116 228.038C49.54 229.07 48.628 229.91 47.38 230.558C46.156 231.182 44.632 231.494 42.808 231.494ZM73.9393 227.066C73.9393 228.098 74.0833 228.794 74.3713 229.154C74.6833 229.49 75.2593 229.682 76.0993 229.73C76.2193 230.018 76.2793 230.522 76.2793 231.242C74.6473 231.194 73.3273 231.17 72.3193 231.17C71.1193 231.17 69.7753 231.194 68.2873 231.242C68.2873 230.522 68.3473 230.018 68.4673 229.73C69.3073 229.682 69.8713 229.49 70.1593 229.154C70.4713 228.794 70.6273 228.098 70.6273 227.066V222.674C66.0193 222.674 62.9113 222.734 61.3033 222.854V227.066C61.3033 228.098 61.4473 228.794 61.7353 229.154C62.0473 229.49 62.6353 229.682 63.4993 229.73C63.5953 230.042 63.6433 230.546 63.6433 231.242C62.0113 231.194 60.6913 231.17 59.6833 231.17C58.4833 231.17 57.1393 231.194 55.6513 231.242C55.6513 230.522 55.7113 230.018 55.8313 229.73C56.4313 229.682 56.8753 229.586 57.1633 229.442C57.4753 229.298 57.6913 229.046 57.8113 228.686C57.9313 228.326 57.9913 227.786 57.9913 227.066V217.238C57.9913 216.542 57.9313 216.014 57.8113 215.654C57.6913 215.294 57.4753 215.042 57.1633 214.898C56.8753 214.754 56.4313 214.658 55.8313 214.61C55.7113 214.274 55.6513 213.77 55.6513 213.098C57.1873 213.146 58.5313 213.17 59.6833 213.17C60.6433 213.17 61.9633 213.146 63.6433 213.098C63.6433 213.794 63.5953 214.298 63.4993 214.61C62.6353 214.658 62.0473 214.85 61.7353 215.186C61.4473 215.522 61.3033 216.206 61.3033 217.238V221.09H70.6273V217.238C70.6273 216.542 70.5553 216.014 70.4113 215.654C70.2913 215.294 70.0753 215.042 69.7633 214.898C69.4753 214.754 69.0313 214.658 68.4313 214.61C68.3353 214.25 68.2873 213.746 68.2873 213.098C69.8233 213.146 71.1553 213.17 72.2833 213.17C73.2673 213.17 74.5993 213.146 76.2793 213.098C76.2793 213.722 76.2193 214.226 76.0993 214.61C75.2353 214.658 74.6593 214.85 74.3713 215.186C74.0833 215.522 73.9393 216.206 73.9393 217.238V227.066ZM90.4492 229.55C91.5772 229.55 92.4652 229.442 93.1132 229.226C93.7852 228.986 94.3132 228.626 94.6972 228.146C95.1052 227.642 95.4892 226.946 95.8492 226.058C96.4972 226.178 97.0252 226.442 97.4332 226.85C97.0012 227.978 96.6772 229.43 96.4612 231.206L90.0892 231.17C86.6332 231.17 83.8492 231.194 81.7372 231.242C81.7372 230.498 81.7972 229.958 81.9172 229.622C82.4932 229.574 82.9372 229.478 83.2492 229.334C83.5612 229.19 83.7772 228.926 83.8972 228.542C84.0412 228.158 84.1132 227.582 84.1132 226.814V217.346C84.1132 216.65 84.0412 216.122 83.8972 215.762C83.7772 215.402 83.5612 215.15 83.2492 215.006C82.9612 214.862 82.5172 214.766 81.9172 214.718C81.8212 214.334 81.7732 213.794 81.7732 213.098C83.5012 213.146 84.8332 213.17 85.7692 213.17C86.7532 213.17 88.0852 213.146 89.7652 213.098C89.7652 213.818 89.7052 214.358 89.5852 214.718C88.7452 214.766 88.1692 214.97 87.8572 215.33C87.5692 215.666 87.4252 216.35 87.4252 217.382V226.742C87.4252 227.51 87.4972 228.098 87.6412 228.506C87.7852 228.89 88.0492 229.166 88.4332 229.334C88.8412 229.478 89.4412 229.55 90.2332 229.55H90.4492ZM101.601 231.242C101.601 230.498 101.661 229.958 101.781 229.622C102.381 229.574 102.825 229.478 103.113 229.334C103.425 229.19 103.641 228.938 103.761 228.578C103.881 228.218 103.941 227.678 103.941 226.958V217.346C103.941 216.65 103.881 216.122 103.761 215.762C103.641 215.402 103.425 215.15 103.113 215.006C102.825 214.862 102.381 214.766 101.781 214.718C101.661 214.358 101.601 213.818 101.601 213.098C103.137 213.146 104.481 213.17 105.633 213.17C106.593 213.17 107.913 213.146 109.593 213.098C109.593 213.842 109.545 214.382 109.449 214.718C108.585 214.766 107.997 214.958 107.685 215.294C107.397 215.63 107.253 216.314 107.253 217.346V226.958C107.253 227.99 107.397 228.686 107.685 229.046C107.997 229.382 108.585 229.574 109.449 229.622C109.545 229.982 109.593 230.522 109.593 231.242C107.961 231.194 106.641 231.17 105.633 231.17C104.433 231.17 103.089 231.194 101.601 231.242ZM133.425 229.622C133.545 229.982 133.605 230.522 133.605 231.242C132.645 231.194 131.409 231.17 129.897 231.17C128.313 231.17 127.041 231.194 126.081 231.242C126.081 230.498 126.153 229.958 126.297 229.622C126.849 229.55 127.233 229.454 127.449 229.334C127.689 229.19 127.809 228.986 127.809 228.722C127.809 228.506 127.689 228.134 127.449 227.606L126.729 226.058C123.273 226.058 120.549 226.118 118.557 226.238L118.161 227.174C117.921 227.726 117.801 228.158 117.801 228.47C117.801 229.142 118.293 229.526 119.277 229.622C119.421 230.054 119.493 230.594 119.493 231.242C118.581 231.194 117.585 231.17 116.505 231.17C115.569 231.17 114.717 231.194 113.949 231.242C113.949 230.666 114.021 230.126 114.165 229.622C114.693 229.526 115.101 229.31 115.389 228.974C115.677 228.614 116.061 227.906 116.541 226.85L122.733 213.134C123.189 213.038 123.669 212.99 124.173 212.99L130.797 226.742C131.325 227.846 131.769 228.59 132.129 228.974C132.513 229.358 132.945 229.574 133.425 229.622ZM126.009 224.582L123.849 220.046C123.225 218.774 122.793 217.766 122.553 217.022C122.361 217.622 122.121 218.222 121.833 218.822C121.569 219.398 121.401 219.758 121.329 219.902L119.277 224.582H126.009ZM152.1 226.742C152.796 227.51 153.588 228.17 154.476 228.722C155.364 229.274 156.216 229.574 157.032 229.622C157.032 230.294 156.972 230.81 156.852 231.17C154.788 231.17 153.132 231.242 151.884 231.386C150.996 230.258 149.76 228.854 148.176 227.174C146.592 225.494 145.068 223.97 143.604 222.602V226.958C143.604 227.99 143.748 228.686 144.036 229.046C144.348 229.382 144.936 229.574 145.8 229.622C145.896 229.982 145.944 230.522 145.944 231.242C144.312 231.194 142.992 231.17 141.984 231.17C140.784 231.17 139.44 231.194 137.952 231.242C137.952 230.498 138.012 229.958 138.132 229.622C138.732 229.574 139.176 229.478 139.464 229.334C139.776 229.19 139.992 228.938 140.112 228.578C140.232 228.218 140.292 227.678 140.292 226.958V217.346C140.292 216.65 140.232 216.122 140.112 215.762C139.992 215.402 139.776 215.15 139.464 215.006C139.176 214.862 138.732 214.766 138.132 214.718C138.012 214.358 137.952 213.818 137.952 213.098C139.488 213.146 140.832 213.17 141.984 213.17C142.944 213.17 144.264 213.146 145.944 213.098C145.944 213.842 145.896 214.382 145.8 214.718C144.936 214.766 144.348 214.958 144.036 215.294C143.748 215.63 143.604 216.314 143.604 217.346V221.738L149.22 217.166C150.228 216.35 150.732 215.738 150.732 215.33C150.732 214.97 150.372 214.766 149.652 214.718C149.532 214.334 149.472 213.794 149.472 213.098C150.432 213.146 151.536 213.17 152.784 213.17C153.912 213.17 155.052 213.146 156.204 213.098C156.204 213.77 156.132 214.31 155.988 214.718C155.268 214.742 154.584 214.91 153.936 215.222C153.312 215.534 152.484 216.074 151.452 216.842L146.592 220.982C148.152 222.47 149.988 224.39 152.1 226.742ZM179.584 227.066C179.584 228.098 179.728 228.794 180.016 229.154C180.328 229.49 180.904 229.682 181.744 229.73C181.864 230.018 181.924 230.522 181.924 231.242C180.292 231.194 178.972 231.17 177.964 231.17C176.764 231.17 175.42 231.194 173.932 231.242C173.932 230.522 173.992 230.018 174.112 229.73C174.952 229.682 175.516 229.49 175.804 229.154C176.116 228.794 176.272 228.098 176.272 227.066V222.674C171.664 222.674 168.556 222.734 166.948 222.854V227.066C166.948 228.098 167.092 228.794 167.38 229.154C167.692 229.49 168.28 229.682 169.144 229.73C169.24 230.042 169.288 230.546 169.288 231.242C167.656 231.194 166.336 231.17 165.328 231.17C164.128 231.17 162.784 231.194 161.296 231.242C161.296 230.522 161.356 230.018 161.476 229.73C162.076 229.682 162.52 229.586 162.808 229.442C163.12 229.298 163.336 229.046 163.456 228.686C163.576 228.326 163.636 227.786 163.636 227.066V217.238C163.636 216.542 163.576 216.014 163.456 215.654C163.336 215.294 163.12 215.042 162.808 214.898C162.52 214.754 162.076 214.658 161.476 214.61C161.356 214.274 161.296 213.77 161.296 213.098C162.832 213.146 164.176 213.17 165.328 213.17C166.288 213.17 167.608 213.146 169.288 213.098C169.288 213.794 169.24 214.298 169.144 214.61C168.28 214.658 167.692 214.85 167.38 215.186C167.092 215.522 166.948 216.206 166.948 217.238V221.09H176.272V217.238C176.272 216.542 176.2 216.014 176.056 215.654C175.936 215.294 175.72 215.042 175.408 214.898C175.12 214.754 174.676 214.658 174.076 214.61C173.98 214.25 173.932 213.746 173.932 213.098C175.468 213.146 176.8 213.17 177.928 213.17C178.912 213.17 180.244 213.146 181.924 213.098C181.924 213.722 181.864 214.226 181.744 214.61C180.88 214.658 180.304 214.85 180.016 215.186C179.728 215.522 179.584 216.206 179.584 217.238V227.066ZM197.102 231.494C195.038 231.494 193.214 231.11 191.63 230.342C190.046 229.574 188.81 228.494 187.922 227.102C187.058 225.71 186.626 224.09 186.626 222.242C186.626 220.418 187.058 218.798 187.922 217.382C188.81 215.966 190.046 214.874 191.63 214.106C193.238 213.314 195.086 212.918 197.174 212.918C199.238 212.918 201.062 213.302 202.646 214.07C204.23 214.838 205.454 215.93 206.318 217.346C207.206 218.738 207.65 220.346 207.65 222.17C207.65 224.018 207.206 225.65 206.318 227.066C205.454 228.458 204.218 229.55 202.61 230.342C201.026 231.11 199.19 231.494 197.102 231.494ZM197.606 229.838C199.55 229.838 201.086 229.19 202.214 227.894C203.366 226.598 203.942 224.87 203.942 222.71C203.942 221.15 203.63 219.758 203.006 218.534C202.382 217.286 201.506 216.314 200.378 215.618C199.274 214.922 198.026 214.574 196.634 214.574C194.69 214.574 193.154 215.234 192.026 216.554C190.898 217.85 190.334 219.566 190.334 221.702C190.334 223.31 190.646 224.738 191.27 225.986C191.894 227.21 192.758 228.158 193.862 228.83C194.966 229.502 196.214 229.838 197.606 229.838ZM227.835 213.17C228.771 213.17 229.839 213.146 231.039 213.098C231.039 213.746 230.979 214.262 230.859 214.646C229.899 214.814 229.023 215.81 228.231 217.634C226.335 221.81 224.127 226.334 221.607 231.206C221.247 231.326 220.779 231.386 220.203 231.386C217.971 226.538 215.787 222.05 213.651 217.922C213.123 216.866 212.739 216.158 212.499 215.798C212.283 215.414 212.055 215.138 211.815 214.97C211.599 214.802 211.299 214.694 210.915 214.646C210.795 214.31 210.735 213.794 210.735 213.098C211.887 213.146 213.207 213.17 214.695 213.17C215.631 213.17 216.963 213.146 218.691 213.098C218.691 213.698 218.631 214.214 218.511 214.646C217.887 214.694 217.419 214.79 217.107 214.934C216.819 215.078 216.675 215.318 216.675 215.654C216.675 216.086 216.903 216.71 217.359 217.526C219.039 220.646 220.539 223.718 221.859 226.742C223.827 222.902 225.303 219.878 226.287 217.67C226.575 217.022 226.719 216.47 226.719 216.014C226.719 215.198 226.215 214.742 225.207 214.646C225.087 214.31 225.027 213.794 225.027 213.098C226.227 213.146 227.163 213.17 227.835 213.17ZM242.893 231.422C241.573 231.422 240.373 231.29 239.293 231.026C238.237 230.762 237.085 230.366 235.837 229.838C236.101 228.23 236.197 226.838 236.125 225.662C236.653 225.494 237.301 225.41 238.069 225.41C238.117 226.898 238.585 227.978 239.473 228.65C240.385 229.322 241.657 229.658 243.289 229.658C244.681 229.658 245.773 229.442 246.565 229.01C247.381 228.578 247.789 228.002 247.789 227.282C247.789 226.778 247.585 226.346 247.177 225.986C246.793 225.602 246.313 225.29 245.737 225.05C245.185 224.786 244.369 224.462 243.289 224.078C241.801 223.574 240.601 223.106 239.689 222.674C238.801 222.218 238.021 221.606 237.349 220.838C236.701 220.046 236.377 219.062 236.377 217.886C236.377 216.278 236.977 215.054 238.177 214.214C239.401 213.374 241.069 212.954 243.181 212.954C244.309 212.954 245.425 213.062 246.529 213.278C247.657 213.494 248.533 213.77 249.157 214.106C249.133 214.37 249.121 214.778 249.121 215.33C249.121 216.41 249.193 217.262 249.337 217.886C248.833 218.15 248.173 218.282 247.357 218.282C247.021 216.914 246.469 215.966 245.701 215.438C244.957 214.886 244.033 214.61 242.929 214.61C241.873 214.61 241.009 214.79 240.337 215.15C239.689 215.51 239.365 216.038 239.365 216.734C239.365 217.526 239.749 218.162 240.517 218.642C241.285 219.122 242.485 219.65 244.117 220.226C245.509 220.706 246.649 221.162 247.537 221.594C248.425 222.026 249.181 222.614 249.805 223.358C250.429 224.078 250.741 224.99 250.741 226.094C250.741 227.678 250.093 228.962 248.797 229.946C247.501 230.93 245.533 231.422 242.893 231.422ZM270.26 226.742C270.956 227.51 271.748 228.17 272.636 228.722C273.524 229.274 274.376 229.574 275.192 229.622C275.192 230.294 275.132 230.81 275.012 231.17C272.948 231.17 271.292 231.242 270.044 231.386C269.156 230.258 267.92 228.854 266.336 227.174C264.752 225.494 263.228 223.97 261.764 222.602V226.958C261.764 227.99 261.908 228.686 262.196 229.046C262.508 229.382 263.096 229.574 263.96 229.622C264.056 229.982 264.104 230.522 264.104 231.242C262.472 231.194 261.152 231.17 260.144 231.17C258.944 231.17 257.6 231.194 256.112 231.242C256.112 230.498 256.172 229.958 256.292 229.622C256.892 229.574 257.336 229.478 257.624 229.334C257.936 229.19 258.152 228.938 258.272 228.578C258.392 228.218 258.452 227.678 258.452 226.958V217.346C258.452 216.65 258.392 216.122 258.272 215.762C258.152 215.402 257.936 215.15 257.624 215.006C257.336 214.862 256.892 214.766 256.292 214.718C256.172 214.358 256.112 213.818 256.112 213.098C257.648 213.146 258.992 213.17 260.144 213.17C261.104 213.17 262.424 213.146 264.104 213.098C264.104 213.842 264.056 214.382 263.96 214.718C263.096 214.766 262.508 214.958 262.196 215.294C261.908 215.63 261.764 216.314 261.764 217.346V221.738L267.38 217.166C268.388 216.35 268.892 215.738 268.892 215.33C268.892 214.97 268.532 214.766 267.812 214.718C267.692 214.334 267.632 213.794 267.632 213.098C268.592 213.146 269.696 213.17 270.944 213.17C272.072 213.17 273.212 213.146 274.364 213.098C274.364 213.77 274.292 214.31 274.148 214.718C273.428 214.742 272.744 214.91 272.096 215.222C271.472 215.534 270.644 216.074 269.612 216.842L264.752 220.982C266.312 222.47 268.148 224.39 270.26 226.742ZM279.456 231.242C279.456 230.498 279.516 229.958 279.636 229.622C280.236 229.574 280.68 229.478 280.968 229.334C281.28 229.19 281.496 228.938 281.616 228.578C281.736 228.218 281.796 227.678 281.796 226.958V217.346C281.796 216.65 281.736 216.122 281.616 215.762C281.496 215.402 281.28 215.15 280.968 215.006C280.68 214.862 280.236 214.766 279.636 214.718C279.516 214.358 279.456 213.818 279.456 213.098C280.992 213.146 282.336 213.17 283.488 213.17C284.448 213.17 285.768 213.146 287.448 213.098C287.448 213.842 287.4 214.382 287.304 214.718C286.44 214.766 285.852 214.958 285.54 215.294C285.252 215.63 285.108 216.314 285.108 217.346V226.958C285.108 227.99 285.252 228.686 285.54 229.046C285.852 229.382 286.44 229.574 287.304 229.622C287.4 229.982 287.448 230.522 287.448 231.242C285.816 231.194 284.496 231.17 283.488 231.17C282.288 231.17 280.944 231.194 279.456 231.242ZM292.921 231.242C292.921 230.498 292.981 229.958 293.101 229.622C293.701 229.574 294.145 229.478 294.433 229.334C294.745 229.19 294.961 228.938 295.081 228.578C295.201 228.218 295.261 227.678 295.261 226.958V217.346C295.261 216.65 295.201 216.122 295.081 215.762C294.961 215.402 294.745 215.15 294.433 215.006C294.145 214.862 293.701 214.766 293.101 214.718C292.981 214.358 292.921 213.818 292.921 213.098C294.457 213.146 295.801 213.17 296.953 213.17C297.913 213.17 299.233 213.146 300.913 213.098C300.913 213.842 300.865 214.382 300.769 214.718C299.905 214.766 299.317 214.958 299.005 215.294C298.717 215.63 298.573 216.314 298.573 217.346V226.958C298.573 227.99 298.717 228.686 299.005 229.046C299.317 229.382 299.905 229.574 300.769 229.622C300.865 229.982 300.913 230.522 300.913 231.242C299.281 231.194 297.961 231.17 296.953 231.17C295.753 231.17 294.409 231.194 292.921 231.242Z" fill="white"/>
<path d="M9.5 140.623L177.5 136.726V144.52L9.5 140.623Z" fill="white"/>
<path d="M345.5 140.623L177.5 136.726V144.52L345.5 140.623Z" fill="white"/>
<path d="M0.5 4.62328L168.5 0.726166V8.52039L0.5 4.62328Z" fill="white"/>
<path d="M336.5 4.62328L168.5 0.726166V8.52039L336.5 4.62328Z" fill="white"/>
</svg>
